<svg width="20" height="20" viewBox="0 0 20 20" fill="none" xmlns="http://www.w3.org/2000/svg">
<path d="M10 0C4.47715 0 0 4.47715 0 10C0 15.5229 4.47715 20 10 20C15.5229 20 20 15.5229 20 10C20 4.47715 15.5229 0 10 0ZM9.68628 3.4314C10.1445 3.43142 10.5176 3.55498 10.8057 3.80372C11.0937 4.05248 11.2378 4.38053 11.2378 4.78638C11.2378 5.19227 11.0937 5.51908 10.8057 5.76783C10.5176 6.0166 10.1445 6.14138 9.68628 6.14137C9.22805 6.14138 8.85492 6.0166 8.5669 5.76783C8.29197 5.51908 8.1543 5.19227 8.1543 4.78638C8.1543 4.38053 8.29197 4.05248 8.5669 3.80372C8.85492 3.55497 9.22805 3.43142 9.68628 3.4314ZM11.1194 7.81007L11.5125 8.26173C11.303 8.81162 11.1975 9.42022 11.1975 10.0879V14.8999C11.1975 15.0701 11.2116 15.1872 11.2378 15.2527C11.2771 15.3182 11.362 15.3838 11.4929 15.4492C11.7286 15.5933 12.0747 15.7309 12.533 15.8618L12.3963 16.5686C11.2703 16.4508 10.4778 16.3928 10.0195 16.3928C9.5613 16.3928 8.77642 16.4508 7.66358 16.5686L7.50612 15.8618C7.97743 15.7571 8.3248 15.6259 8.54738 15.4688C8.74377 15.351 8.84157 15.1618 8.84157 14.8999V9.99025C8.84157 9.53203 8.66407 9.303 8.31057 9.303L7.62332 9.43972L7.46707 8.6548C7.93838 8.45843 8.55985 8.26803 9.3323 8.08473C10.1047 7.90143 10.7004 7.81007 11.1194 7.81007Z" fill="#FE4300"/>
</svg>
